<svg xmlns="http://www.w3.org/2000/svg" version="1.1" xmlns:xlink="http://www.w3.org/1999/xlink" viewBox="0 0 200 200"><rect width="200" height="200" fill="url('#gradient')"></rect><defs><linearGradient id="gradient" gradientTransform="rotate(87 0.5 0.5)"><stop offset="0%" stop-color="#080b12"></stop><stop offset="100%" stop-color="#4b5675"></stop></linearGradient></defs><g><g fill="#e2e8f0" transform="matrix(1.9063829787234043,0,0,1.9063829787234043,15.145173606086281,112.39051236700504)" stroke="#4b5675" stroke-width="0"><path d="M9.08-7.79L3.74-5.95L9.08-4.15L9.08-1.15L0.45-4.67L0.45-7.27L9.08-10.78L9.08-7.79ZM20.18 0L19.35-2.66L14.65-2.66L13.83 0L10.17 0L15.38-14.22L18.60-14.22L23.86 0L20.18 0ZM16.99-10.23L15.47-5.30L18.53-5.30L16.99-10.23ZM36.77-14.22L36.77 0L33.36 0L28.32-8.85L28.32 0L24.89 0L24.89-14.22L28.32-14.22L33.35-5.37L33.35-14.22L36.77-14.22ZM43.61 0L38.94 0L38.94-14.22L43.52-14.22Q45.40-14.22 46.90-13.36Q48.41-12.51 49.25-10.95Q50.10-9.39 50.11-7.46L50.11-7.46L50.11-6.81Q50.11-4.85 49.28-3.31Q48.46-1.76 46.96-0.88Q45.46-0.01 43.61 0L43.61 0ZM43.52-11.57L42.36-11.57L42.36-2.64L43.55-2.64Q45.03-2.64 45.82-3.69Q46.61-4.74 46.61-6.81L46.61-6.81L46.61-7.42Q46.61-9.48 45.82-10.53Q45.03-11.57 43.52-11.57L43.52-11.57ZM56.83 0.20L56.83 0.20Q54.39 0.20 52.89-1.25Q51.39-2.71 51.39-5.03L51.39-5.03L51.39-5.30Q51.39-6.92 51.99-8.16Q52.59-9.40 53.74-10.08Q54.89-10.76 56.47-10.76L56.47-10.76Q58.70-10.76 59.99-9.38Q61.28-8.00 61.28-5.53L61.28-5.53L61.28-4.25L54.74-4.25Q54.91-3.36 55.51-2.85Q56.10-2.34 57.05-2.34L57.05-2.34Q58.61-2.34 59.49-3.44L59.49-3.44L61.00-1.66Q60.38-0.81 59.25-0.31Q58.13 0.20 56.83 0.20ZM56.46-8.22L56.46-8.22Q55.01-8.22 54.74-6.31L54.74-6.31L58.06-6.31L58.06-6.56Q58.08-7.35 57.66-7.79Q57.24-8.22 56.46-8.22ZM65.05-10.57L66.69-3.92L68.36-10.57L71.83-10.57L68.38 0L65.02 0L61.57-10.57L65.05-10.57ZM78.80-14.22L73.94 1.22L71.60 1.22L76.46-14.22L78.80-14.22ZM79.99-4.13L85.30-5.98L79.99-7.78L79.99-10.77L88.57-7.26L88.57-4.66L79.99-1.14L79.99-4.13Z"></path></g></g></svg>