<svg xmlns="http://www.w3.org/2000/svg" viewBox="0 0 200 200"><path fill="url('#a')" d="M0 0h200v200H0z"/><defs><linearGradient id="a" gradientTransform="rotate(87 .5 .5)"><stop offset="0%" stop-color="#080b12"/><stop offset="100%" stop-color="#4b5675"/></linearGradient></defs><path fill="#e2e8f0" d="m32.455 97.54-10.18 3.508 10.18 3.431v5.72l-16.452-6.711V98.53l16.452-6.691zm21.161 14.85-1.582-5.07h-8.96l-1.564 5.07h-6.977l9.932-27.108h6.139L60.63 112.39zm-6.081-19.502-2.898 9.399h5.833zm37.708-7.606v27.109h-6.5l-9.61-16.872v16.872h-6.538V85.28h6.539l9.589 16.872v-16.87zm13.04 27.109H89.38V85.28h8.731q3.584 0 6.444 1.64 2.878 1.62 4.48 4.595 1.62 2.974 1.639 6.653v1.239q0 3.737-1.582 6.672-1.564 2.955-4.423 4.633-2.86 1.658-6.386 1.678m-.172-22.057H95.9v17.024h2.268q2.822 0 4.328-2.002t1.506-5.948v-1.163q0-3.927-1.506-5.929-1.506-1.982-4.385-1.982m25.374 22.438q-4.652 0-7.511-2.764-2.86-2.784-2.86-7.207v-.514q0-3.089 1.144-5.453 1.144-2.363 3.336-3.66 2.193-1.296 5.205-1.296 4.25 0 6.71 2.63t2.46 7.34v2.44H119.5q.324 1.697 1.467 2.67 1.125.972 2.936.972 2.974 0 4.652-2.097l2.879 3.393q-1.182 1.62-3.337 2.574-2.135.972-4.613.972m-.705-16.052q-2.765 0-3.28 3.641h6.33v-.476q.038-1.506-.763-2.345-.8-.82-2.287-.82m16.375-4.48 3.127 12.677 3.184-12.677h6.615l-6.577 20.15h-6.406l-6.577-20.15zm26.213-6.958-9.265 29.434h-4.46l9.264-29.434zm2.269 19.235 10.123-3.527-10.123-3.431v-5.7l16.357 6.691v4.957l-16.357 6.71z"/></svg>